<?xml version="1.0" encoding="UTF-8" standalone="no"?>
<!DOCTYPE svg PUBLIC "-//W3C//DTD SVG 1.1//EN" "http://www.w3.org/Graphics/SVG/1.1/DTD/svg11.dtd">
<svg width="100%" height="100%" viewBox="0 0 1920 1920" version="1.1" xmlns="http://www.w3.org/2000/svg" xmlns:xlink="http://www.w3.org/1999/xlink" xml:space="preserve" xmlns:serif="http://www.serif.com/" style="fill-rule:evenodd;clip-rule:evenodd;stroke-linejoin:round;stroke-miterlimit:2;">
    <g transform="matrix(2.050182,0,0,2.050182,-1342.02837,-2875.126543)">
        <g transform="matrix(3.623047,0,0,3.623047,-643.072816,653.902276)">
            <path d="M591.504,405.855C602.697,404.425 603.243,404.584 603.182,405.516C600.96,439.654 570.92,447.527 566.539,448.675C524.58,459.671 490.126,405.411 438.241,368.87C422.2,357.573 402.362,353.719 413.127,358.873C425.748,364.915 439.565,378.287 439.701,384.49C440.449,418.758 435.082,427.126 433.086,430.239C420.928,449.195 367.575,463.164 366.954,435.493C366.632,421.15 384.051,310.117 384.361,308.471C388.815,284.855 417.485,283.682 465.123,323.974C530.128,378.954 549.901,401.808 591.504,405.855Z" style="fill:rgb(10,100,188);"/>
        </g>
        <g transform="matrix(3.623047,0,0,3.623047,-643.072816,653.902276)">
            <path d="M608.104,344.496C607.705,383.573 608.189,399.47 583.578,394.129C523.847,381.166 450.721,268.007 395.473,282.394C391.007,283.558 390.875,282.798 390.891,282.432C391.126,276.868 396.377,242.061 396.905,238.558C399.763,219.614 418.837,219.978 431.447,220.971C475.193,224.414 526.437,307.909 584.483,342.536C584.72,342.678 600.847,349.98 587.91,342.152C575.329,334.539 544.534,300.359 544.176,293.525C544.017,290.483 542.405,259.693 544.402,255.447C547.114,249.68 601.103,247.738 607.101,286.565C607.518,289.264 608.993,290.228 608.104,344.496Z" style="fill:rgb(10,100,188);"/>
        </g>
    </g>
</svg>
